<svg width="359" height="111" viewBox="0 0 359 111" fill="none" xmlns="http://www.w3.org/2000/svg">
<path d="M24.2667 14.0001L0 28.0001L0.266667 55.3334L0.666667 82.8001L24.5333 96.5334L48.2667 110.267L72.1333 96.6667L96 83.0667L95.7333 55.0667L95.3333 27.0667L71.8667 13.6001L48.5333 6.10352e-05L24.2667 14.0001ZM70.9333 17.6001L91.8667 29.6001L92 55.0667V80.5334L70.8 92.8001C59.2 99.4667 49.0667 104.933 48.4 104.933C47.6 104.933 37.6 99.4667 26.1333 92.8001L5.33333 80.6667V55.2001V29.6001L26.4 17.3334C37.8667 10.5334 48 5.20007 48.6667 5.3334C49.4667 5.46673 59.4667 10.9334 70.9333 17.6001Z" fill="black"/>
<path d="M50.5334 33.2001C50.5334 33.4667 48.5334 43.6001 46.1334 55.8667C42.2667 76.0001 42.1334 78.2667 44.1334 78.2667C45.6 78.2667 46.5334 76.8001 47.0667 73.8667C47.4667 71.6001 49.3334 61.4667 51.2 51.6001C53.0667 41.7334 54.6667 33.4667 54.6667 33.2001C54.6667 33.0667 53.7334 32.9334 52.6667 32.9334C51.6 32.9334 50.6667 33.0667 50.5334 33.2001Z" fill="black"/>
<path d="M25.7334 46.0001C16.9334 50.6667 14.6667 52.6667 14.6667 54.9334C14.6667 58.5334 15.3334 59.0667 28.4001 66.1334L38.6667 71.7334V67.8667C38.6667 64.5334 37.7334 63.6001 30.6667 60.2667C26.2667 58.1334 22.6667 56.0001 22.6667 55.6001C22.6667 55.2001 26.2667 53.0667 30.6667 50.9334C37.6001 47.6001 38.6667 46.6667 38.6667 43.3334C38.6667 41.3334 38.2667 39.7334 37.7334 39.7334C37.0667 39.8667 31.7334 42.6667 25.7334 46.0001Z" fill="black"/>
<path d="M57.3333 42.9334C57.3333 45.6001 58.7999 46.9334 66.1333 50.6668L75.0666 55.2001L70.5333 57.7334C67.9999 59.2001 64.2666 61.2001 61.9999 62.2668C59.3333 63.7334 57.8666 65.4668 57.5999 68.0001C57.3333 70.0001 57.4666 71.6001 57.8666 71.6001C58.2666 71.6001 63.7333 68.8001 69.9999 65.3334C79.9999 59.8668 81.3333 58.6668 81.3333 55.4668C81.3333 52.2668 79.9999 51.0668 69.9999 45.7334C63.7333 42.4001 58.3999 39.6001 57.9999 39.6001C57.5999 39.6001 57.3333 41.0668 57.3333 42.9334Z" fill="black"/>
<path d="M134.667 54.8001C134.667 101.067 134.933 107.6 136.667 107.6C138.4 107.6 138.667 101.2 138.4 55.3334C138.133 15.0668 137.6 3.06676 136.4 2.53342C135.067 2.13342 134.667 13.2001 134.667 54.8001Z" fill="black"/>
<path d="M166.667 23.4667V39.7334L171.067 39.3334C174.8 38.9334 175.333 38.4001 175.733 34.5334C176.133 30.4001 176.267 30.2667 182.8 30.2667C194.533 30.2667 200.267 24.9334 198.133 16.2667C196.667 10.6667 191.6 8.40006 178.533 7.86673L166.667 7.3334V23.4667ZM188 16.2667C188.8 17.3334 189.2 19.3334 188.667 20.9334C188 23.0667 186.667 23.6001 182 23.6001C175.867 23.6001 174.8 22.4001 175.733 17.3334C176.267 14.8001 177.2 14.2667 181.333 14.2667C184.133 14.2667 187.067 15.2001 188 16.2667Z" fill="black"/>
<path d="M202.667 10.9334C202.667 13.3334 203.333 14.2668 205.333 14.2668C207.733 14.2668 208 15.2001 208 23.6001C208 32.0001 207.733 32.9334 205.333 32.9334C203.333 32.9334 202.667 33.8668 202.667 36.2668C202.667 39.6001 202.8 39.6001 213.333 39.6001C223.733 39.6001 224 39.4668 224 36.4001C224 34.0001 223.2 33.0668 221.067 32.6668C218.267 32.2668 218 31.6001 218 23.6001C218 15.6001 218.267 14.9334 221.067 14.5334C223.333 14.1334 224 13.3334 223.733 11.2001C223.333 8.53343 222.4 8.26676 213.067 7.86676C202.667 7.46676 202.667 7.46677 202.667 10.9334Z" fill="black"/>
<path d="M166.667 83.6001V99.6001H178.667C185.2 99.6001 192.133 98.9334 194 98.0001C199.867 95.3334 200.4 86.8001 194.667 84.0001C191.867 82.6668 191.733 82.2668 193.6 81.6001C196.667 80.4001 197.867 76.2668 196 73.0668C194.267 69.6001 186.8 67.6001 175.733 67.6001H166.667V83.6001ZM186.533 76.0001C188.533 78.5334 187.067 79.6001 181.067 79.6001C176.933 79.6001 176 79.2001 176 76.9334C176 74.8001 176.933 74.2668 180.533 74.2668C182.933 74.2668 185.733 75.0668 186.533 76.0001ZM188.667 89.6001C188.667 91.8668 187.6 92.2668 181.867 92.6668C175.067 93.0668 175.067 92.9334 175.733 89.6001C176.267 86.4001 176.8 86.1334 182.533 86.5334C187.6 86.9334 188.667 87.3334 188.667 89.6001Z" fill="black"/>
<path d="M212.4 69.4667C207.467 71.7334 204 77.6001 204 83.8667C204 88.8001 208 96.1334 211.6 98.0001C219.467 102 231.333 100.533 236.667 94.8001C242.267 88.6667 241.6 77.6001 235.333 71.6001C231.067 67.6001 218.933 66.5334 212.4 69.4667ZM228.267 76.5334C231.333 79.2001 231.467 87.8667 228.533 90.8001C225.333 94.0001 217.867 93.4667 215.467 90.0001C208.933 80.6667 220 69.0667 228.267 76.5334Z" fill="black"/>
<path d="M256.267 69.2001C255.6 70.1334 253.067 75.4668 250.667 80.9334C248.267 86.4001 245.6 92.9334 244.533 95.2001L242.667 99.6001H247.467C251.067 99.6001 252.4 98.9334 252.933 96.9334C253.6 94.6668 254.8 94.2668 261.467 94.2668C267.867 94.2668 269.467 94.8001 270.667 96.9334C272.267 100 282.133 100.933 280.933 97.8668C280.533 97.0668 277.467 89.8668 274 81.8668L267.6 67.6001H262.667C259.867 67.6001 257.067 68.4001 256.267 69.2001ZM265.333 85.2001C265.333 86.8001 264.267 87.6001 262.267 87.6001C257.733 87.6001 257.2 86.5334 259.733 81.4668C261.867 76.8001 261.867 76.8001 263.6 79.8668C264.533 81.6001 265.2 84.0001 265.333 85.2001Z" fill="black"/>
<path d="M286.267 68.5334C285.733 68.9334 285.333 76.1334 285.333 84.5334V99.6001H290C294.533 99.6001 294.667 99.4668 294.667 94.2668C294.667 88.9334 294.667 88.9334 299.733 88.9334C304.133 88.9334 305.067 89.6001 307.733 94.2668C310.4 98.9334 311.333 99.6001 315.333 99.6001C317.867 99.6001 320 99.2001 320 98.5334C320 97.2001 314.533 88.4001 313.067 87.4668C312.4 86.9334 313.333 85.0668 315.333 83.0668C317.867 80.4001 318.533 78.8001 317.867 76.5334C316.533 72.0001 314.8 70.4001 309.467 68.9334C304.133 67.4668 287.6 67.0668 286.267 68.5334ZM306.4 75.4668C307.467 76.1334 308 77.7334 307.733 79.0668C307.467 81.0668 305.867 81.7334 300.933 82.0001C295.067 82.4001 294.667 82.1334 294.667 79.2001C294.667 77.4668 295.067 75.6001 295.6 75.2001C296.8 73.8668 304.267 74.1334 306.4 75.4668Z" fill="black"/>
<path d="M325.333 83.6001V99.6001H336C352.667 99.6001 358.667 95.2001 358.667 83.2001C358.667 72.0001 351.6 67.6001 333.067 67.6001H325.333V83.6001ZM346.667 76.9334C349.867 80.1334 350.133 87.2001 347.067 90.5334C345.733 92.0001 343.067 92.9334 339.733 92.9334H334.667V83.6001V74.2668H339.333C342.267 74.2668 345.067 75.3334 346.667 76.9334Z" fill="black"/>
</svg>
