<svg width="359" height="112" viewBox="0 0 359 112" fill="none" xmlns="http://www.w3.org/2000/svg">
<path d="M24.2667 15.0138L0 29.0548L0.266667 56.4682L0.666667 84.0154L24.5333 97.7889L48.2667 111.562L72.1333 97.9227L96 84.2828L95.7333 56.2008L95.3333 28.1188L71.8667 14.6126L48.5333 0.972801L24.2667 15.0138ZM70.9333 18.6244L91.8667 30.6595L92 56.2008V81.7421L70.8 94.0447C59.2 100.731 49.0667 106.214 48.4 106.214C47.6 106.214 37.6 100.731 26.1333 94.0447L5.33333 81.8758V56.3345V30.6595L26.4 18.3569C37.8667 11.537 48 6.18803 48.6667 6.32175C49.4667 6.45548 59.4667 11.9382 70.9333 18.6244Z" fill="white"/>
<path d="M50.5334 34.2701C50.5334 34.5375 48.5334 44.7005 46.1334 57.0031C42.2667 77.1954 42.1334 79.4688 44.1334 79.4688C45.6 79.4688 46.5334 77.9978 47.0667 75.0559C47.4667 72.7826 49.3334 62.6195 51.2 52.724C53.0667 42.8284 54.6667 34.5375 54.6667 34.2701C54.6667 34.1363 53.7334 34.0026 52.6667 34.0026C51.6 34.0026 50.6667 34.1363 50.5334 34.2701Z" fill="white"/>
<path d="M25.7334 47.1075C16.9334 51.7879 14.6667 53.7937 14.6667 56.067C14.6667 59.6776 15.3334 60.2125 28.4001 67.2999L38.6667 72.9163V69.0383C38.6667 65.6952 37.7334 64.7591 30.6667 61.416C26.2667 59.2764 22.6667 57.1368 22.6667 56.7357C22.6667 56.3345 26.2667 54.1949 30.6667 52.0553C37.6001 48.7122 38.6667 47.7762 38.6667 44.4331C38.6667 42.4272 38.2667 40.8225 37.7334 40.8225C37.0667 40.9562 31.7334 43.7644 25.7334 47.1075Z" fill="white"/>
<path d="M57.3333 44.0318C57.3333 46.7063 58.7999 48.0435 66.1333 51.7878L75.0666 56.3344L70.5333 58.8752C67.9999 60.3461 64.2666 62.352 61.9999 63.4218C59.3333 64.8928 57.8666 66.6312 57.5999 69.1719C57.3333 71.1778 57.4666 72.7825 57.8666 72.7825C58.2666 72.7825 63.7333 69.9743 69.9999 66.4974C79.9999 61.0148 81.3333 59.8112 81.3333 56.6019C81.3333 53.3925 79.9999 52.189 69.9999 46.84C63.7333 43.4969 58.3999 40.6887 57.9999 40.6887C57.5999 40.6887 57.3333 42.1597 57.3333 44.0318Z" fill="white"/>
<path d="M134.667 55.9332C134.667 102.335 134.933 108.888 136.667 108.888C138.4 108.888 138.667 102.469 138.4 56.4681C138.133 16.0835 137.6 4.04834 136.4 3.51345C135.067 3.11227 134.667 14.2114 134.667 55.9332Z" fill="white"/>
<path d="M166.667 24.5082V40.8225L171.067 40.4213C174.8 40.0202 175.333 39.4853 175.733 35.6073C176.133 31.4618 176.267 31.3281 182.8 31.3281C194.533 31.3281 200.267 25.9792 198.133 17.2871C196.667 11.6707 191.6 9.39738 178.533 8.86249L166.667 8.32759V24.5082ZM188 17.2871C188.8 18.3569 189.2 20.3627 188.667 21.9674C188 24.107 186.667 24.6419 182 24.6419C175.867 24.6419 174.8 23.4384 175.733 18.3569C176.267 15.8161 177.2 15.2812 181.333 15.2812C184.133 15.2812 187.067 16.2173 188 17.2871Z" fill="white"/>
<path d="M202.667 11.9381C202.667 14.3451 203.333 15.2812 205.333 15.2812C207.733 15.2812 208 16.2172 208 24.6418C208 33.0665 207.733 34.0025 205.333 34.0025C203.333 34.0025 202.667 34.9386 202.667 37.3456C202.667 40.6887 202.8 40.6887 213.333 40.6887C223.733 40.6887 224 40.555 224 37.4793C224 35.0723 223.2 34.1362 221.067 33.7351C218.267 33.3339 218 32.6653 218 24.6418C218 16.6184 218.267 15.9498 221.067 15.5486C223.333 15.1474 224 14.3451 223.733 12.2055C223.333 9.53104 222.4 9.26359 213.067 8.86242C202.667 8.46125 202.667 8.46125 202.667 11.9381Z" fill="white"/>
<path d="M166.667 84.8176V100.865H178.667C185.2 100.865 192.133 100.196 194 99.2598C199.867 96.5853 200.4 88.027 194.667 85.2188C191.867 83.8816 191.733 83.4804 193.6 82.8118C196.667 81.6083 197.867 77.4628 196 74.2534C194.267 70.7766 186.8 68.7708 175.733 68.7708H166.667V84.8176ZM186.533 77.1954C188.533 79.7361 187.067 80.8059 181.067 80.8059C176.933 80.8059 176 80.4047 176 78.1314C176 75.9918 176.933 75.4569 180.533 75.4569C182.933 75.4569 185.733 76.2593 186.533 77.1954ZM188.667 90.8352C188.667 93.1085 187.6 93.5097 181.867 93.9109C175.067 94.312 175.067 94.1783 175.733 90.8352C176.267 87.6258 176.8 87.3584 182.533 87.7596C187.6 88.1607 188.667 88.5619 188.667 90.8352Z" fill="white"/>
<path d="M212.4 70.6429C207.467 72.9162 204 78.8001 204 85.0851C204 90.0329 208 97.3877 211.6 99.2598C219.467 103.272 231.333 101.801 236.667 96.0504C242.267 89.8991 241.6 78.8001 235.333 72.7825C231.067 68.7708 218.933 67.701 212.4 70.6429ZM228.267 77.7303C231.333 80.4047 231.467 89.0968 228.533 92.0387C225.333 95.2481 217.867 94.7132 215.467 91.2364C208.933 81.8757 220 70.2417 228.267 77.7303Z" fill="white"/>
<path d="M256.267 70.3754C255.6 71.3114 253.067 76.6604 250.667 82.1431C248.267 87.6257 245.6 94.1782 244.533 96.4515L242.667 100.864H247.467C251.067 100.864 252.4 100.196 252.933 98.1899C253.6 95.9166 254.8 95.5155 261.467 95.5155C267.867 95.5155 269.467 96.0504 270.667 98.1899C272.267 101.266 282.133 102.202 280.933 99.126C280.533 98.3237 277.467 91.1026 274 83.0791L267.6 68.7707H262.667C259.867 68.7707 257.067 69.573 256.267 70.3754ZM265.333 86.4222C265.333 88.0269 264.267 88.8293 262.267 88.8293C257.733 88.8293 257.2 87.7595 259.733 82.678C261.867 77.9976 261.867 77.9976 263.6 81.0733C264.533 82.8117 265.2 85.2187 265.333 86.4222Z" fill="white"/>
<path d="M286.267 69.7068C285.733 70.108 285.333 77.3291 285.333 85.7537V100.865H290C294.533 100.865 294.667 100.731 294.667 95.5155C294.667 90.1666 294.667 90.1666 299.733 90.1666C304.133 90.1666 305.067 90.8352 307.733 95.5155C310.4 100.196 311.333 100.865 315.333 100.865C317.867 100.865 320 100.463 320 99.7947C320 98.4575 314.533 89.6317 313.067 88.6956C312.4 88.1607 313.333 86.2886 315.333 84.2827C317.867 81.6082 318.533 80.0036 317.867 77.7303C316.533 73.1836 314.8 71.579 309.467 70.108C304.133 68.637 287.6 68.2359 286.267 69.7068ZM306.4 76.6605C307.467 77.3291 308 78.9338 307.733 80.271C307.467 82.2769 305.867 82.9455 300.933 83.2129C295.067 83.6141 294.667 83.3467 294.667 80.4047C294.667 78.6663 295.067 76.7942 295.6 76.393C296.8 75.0558 304.267 75.3232 306.4 76.6605Z" fill="white"/>
<path d="M325.333 84.8176V100.865H336C352.667 100.865 358.667 96.4516 358.667 84.4165C358.667 73.1836 351.6 68.7708 333.067 68.7708H325.333V84.8176ZM346.667 78.1314C349.867 81.3408 350.133 88.4282 347.067 91.7713C345.733 93.2422 343.067 94.1783 339.733 94.1783H334.667V84.8176V75.4569H339.333C342.267 75.4569 345.067 76.5267 346.667 78.1314Z" fill="white"/>
</svg>
